<mxfile host="app.diagrams.net" modified="2023-04-27T12:00:59.500Z" agent="Mozilla/5.0 (X11; Linux x86_64) AppleWebKit/537.36 (KHTML, like Gecko) Chrome/112.0.0.0 Safari/537.36" etag="YxQzfz8UrCUaDlUeLWMK" version="21.2.1" type="device">
  <diagram name="Page-1" id="97916047-d0de-89f5-080d-49f4d83e522f">
    <mxGraphModel dx="1362" dy="775" grid="1" gridSize="10" guides="1" tooltips="1" connect="1" arrows="1" fold="1" page="1" pageScale="1.5" pageWidth="1169" pageHeight="827" background="none" math="0" shadow="0">
      <root>
        <mxCell id="0" />
        <mxCell id="1" parent="0" />
        <mxCell id="3" value="Distributed Ledger &#xa;Technology" style="rounded=1;fillColor=#dae8fc;strokeColor=#6c8ebf;shadow=1;gradientColor=#7ea6e0;fontStyle=1;fontSize=14;" parent="1" vertex="1">
          <mxGeometry x="600" y="360" width="160" height="45.5" as="geometry" />
        </mxCell>
        <mxCell id="4" value="Governance" style="rounded=1;fillColor=#d5e8d4;strokeColor=#82b366;shadow=1;gradientColor=#97d077;fontStyle=1;fontSize=14;" parent="1" vertex="1">
          <mxGeometry x="302" y="455.5" width="168" height="44.5" as="geometry" />
        </mxCell>
        <mxCell id="6" value="Access" style="rounded=1;fillColor=#fad9d5;strokeColor=#ae4132;shadow=1;fontStyle=1;fontSize=14;" parent="1" vertex="1">
          <mxGeometry x="877" y="455.5" width="150" height="34.5" as="geometry" />
        </mxCell>
        <mxCell id="8" value="Blockchain Generations" style="rounded=1;fillColor=#b1ddf0;strokeColor=#10739e;shadow=1;fontStyle=1;fontSize=14;" parent="1" vertex="1">
          <mxGeometry x="560" y="455.5" width="200" height="60" as="geometry" />
        </mxCell>
        <mxCell id="13" value="4th &#xa;Generation" style="rounded=1;fillColor=#dae8fc;strokeColor=#6c8ebf;shadow=1;fontStyle=1;fontSize=14;" parent="1" vertex="1">
          <mxGeometry x="752" y="610" width="88" height="40" as="geometry" />
        </mxCell>
        <mxCell id="30" value="" style="edgeStyle=elbowEdgeStyle;elbow=vertical;strokeWidth=4;endArrow=block;endFill=1;fontStyle=1;strokeColor=#23445D;" parent="1" source="3" edge="1">
          <mxGeometry x="22" y="165.5" width="100" height="100" as="geometry">
            <mxPoint x="22" y="265.5" as="sourcePoint" />
            <mxPoint x="680" y="455.5" as="targetPoint" />
          </mxGeometry>
        </mxCell>
        <mxCell id="31" value="" style="edgeStyle=elbowEdgeStyle;elbow=vertical;strokeWidth=4;endArrow=block;endFill=1;fontStyle=1;strokeColor=#23445D;" parent="1" source="3" target="4" edge="1">
          <mxGeometry x="22" y="165.5" width="100" height="100" as="geometry">
            <mxPoint x="22" y="265.5" as="sourcePoint" />
            <mxPoint x="122" y="165.5" as="targetPoint" />
          </mxGeometry>
        </mxCell>
        <mxCell id="32" value="" style="edgeStyle=elbowEdgeStyle;elbow=vertical;strokeWidth=4;endArrow=block;endFill=1;fontStyle=1;strokeColor=#23445D;" parent="1" source="3" target="6" edge="1">
          <mxGeometry x="22" y="165.5" width="100" height="100" as="geometry">
            <mxPoint x="22" y="265.5" as="sourcePoint" />
            <mxPoint x="122" y="165.5" as="targetPoint" />
          </mxGeometry>
        </mxCell>
        <mxCell id="39" value="" style="edgeStyle=elbowEdgeStyle;elbow=vertical;strokeWidth=4;endArrow=block;endFill=1;fontStyle=1;strokeColor=#23445D;" parent="1" edge="1">
          <mxGeometry x="480" y="110" width="100" height="100" as="geometry">
            <mxPoint x="800" y="650" as="sourcePoint" />
            <mxPoint x="800" y="690" as="targetPoint" />
          </mxGeometry>
        </mxCell>
        <mxCell id="xst5zTmV_FD7mheuf8MC-58" value="Public" style="rounded=1;fillColor=#f8cecc;strokeColor=#b85450;shadow=1;gradientColor=#ea6b66;fontStyle=1;fontSize=14;" parent="1" vertex="1">
          <mxGeometry x="830" y="550" width="110" height="24.5" as="geometry" />
        </mxCell>
        <mxCell id="xst5zTmV_FD7mheuf8MC-59" value="Private" style="rounded=1;fillColor=#f8cecc;strokeColor=#b85450;shadow=1;gradientColor=#ea6b66;fontStyle=1;fontSize=14;" parent="1" vertex="1">
          <mxGeometry x="950" y="550" width="90" height="24.5" as="geometry" />
        </mxCell>
        <mxCell id="xst5zTmV_FD7mheuf8MC-62" value="" style="edgeStyle=elbowEdgeStyle;elbow=vertical;strokeWidth=4;endArrow=block;endFill=1;fontStyle=1;strokeColor=#23445D;" parent="1" edge="1">
          <mxGeometry x="292" y="253" width="100" height="100" as="geometry">
            <mxPoint x="950" y="493.5" as="sourcePoint" />
            <mxPoint x="900" y="550" as="targetPoint" />
            <Array as="points">
              <mxPoint x="920" y="520" />
            </Array>
          </mxGeometry>
        </mxCell>
        <mxCell id="xst5zTmV_FD7mheuf8MC-63" value="" style="edgeStyle=elbowEdgeStyle;elbow=vertical;strokeWidth=4;endArrow=block;endFill=1;fontStyle=1;strokeColor=#23445D;entryX=0.5;entryY=0;entryDx=0;entryDy=0;" parent="1" edge="1">
          <mxGeometry x="292" y="253.5" width="100" height="100" as="geometry">
            <mxPoint x="950" y="494" as="sourcePoint" />
            <mxPoint x="995" y="550" as="targetPoint" />
            <Array as="points">
              <mxPoint x="990" y="520" />
            </Array>
          </mxGeometry>
        </mxCell>
        <mxCell id="xst5zTmV_FD7mheuf8MC-65" value="Permissioned" style="rounded=1;fillColor=#d5e8d4;strokeColor=#82b366;shadow=1;fontStyle=1;fontSize=14;" parent="1" vertex="1">
          <mxGeometry x="280" y="560" width="110" height="30" as="geometry" />
        </mxCell>
        <mxCell id="xst5zTmV_FD7mheuf8MC-66" value="Permissionless" style="rounded=1;fillColor=#d5e8d4;strokeColor=#82b366;shadow=1;fontStyle=1;fontSize=14;" parent="1" vertex="1">
          <mxGeometry x="400" y="560" width="110" height="30" as="geometry" />
        </mxCell>
        <mxCell id="xst5zTmV_FD7mheuf8MC-67" value="" style="edgeStyle=elbowEdgeStyle;elbow=vertical;strokeWidth=4;endArrow=block;endFill=1;fontStyle=1;strokeColor=#23445D;" parent="1" edge="1">
          <mxGeometry x="-258" y="263" width="100" height="100" as="geometry">
            <mxPoint x="400" y="503.5" as="sourcePoint" />
            <mxPoint x="350" y="560" as="targetPoint" />
            <Array as="points">
              <mxPoint x="370" y="530" />
            </Array>
          </mxGeometry>
        </mxCell>
        <mxCell id="xst5zTmV_FD7mheuf8MC-68" value="" style="edgeStyle=elbowEdgeStyle;elbow=vertical;strokeWidth=4;endArrow=block;endFill=1;fontStyle=1;strokeColor=#23445D;entryX=0.5;entryY=0;entryDx=0;entryDy=0;" parent="1" edge="1">
          <mxGeometry x="-258" y="263.5" width="100" height="100" as="geometry">
            <mxPoint x="400" y="504" as="sourcePoint" />
            <mxPoint x="445" y="560" as="targetPoint" />
            <Array as="points">
              <mxPoint x="440" y="530" />
            </Array>
          </mxGeometry>
        </mxCell>
        <mxCell id="xst5zTmV_FD7mheuf8MC-69" value="" style="edgeStyle=elbowEdgeStyle;elbow=vertical;strokeWidth=4;endArrow=block;endFill=1;fontStyle=1;strokeColor=#23445D;exitX=0.13;exitY=1.025;exitDx=0;exitDy=0;exitPerimeter=0;entryX=0.425;entryY=-0.011;entryDx=0;entryDy=0;entryPerimeter=0;" parent="1" source="8" target="xst5zTmV_FD7mheuf8MC-77" edge="1">
          <mxGeometry x="-38" y="275" width="100" height="100" as="geometry">
            <mxPoint x="620" y="515.5" as="sourcePoint" />
            <mxPoint x="490" y="612" as="targetPoint" />
            <Array as="points">
              <mxPoint x="530" y="560" />
              <mxPoint x="550" y="540" />
              <mxPoint x="540" y="560" />
              <mxPoint x="500" y="540" />
              <mxPoint x="500" y="540" />
              <mxPoint x="510" y="540" />
              <mxPoint x="590" y="542" />
            </Array>
          </mxGeometry>
        </mxCell>
        <mxCell id="xst5zTmV_FD7mheuf8MC-72" value="" style="edgeStyle=elbowEdgeStyle;elbow=vertical;strokeWidth=4;endArrow=block;endFill=1;fontStyle=1;strokeColor=#23445D;exitX=0.75;exitY=1;exitDx=0;exitDy=0;" parent="1" source="8" edge="1">
          <mxGeometry x="22" y="273.5" width="100" height="100" as="geometry">
            <mxPoint x="680" y="514" as="sourcePoint" />
            <mxPoint x="790" y="610" as="targetPoint" />
            <Array as="points">
              <mxPoint x="720" y="560" />
              <mxPoint x="740" y="560" />
            </Array>
          </mxGeometry>
        </mxCell>
        <mxCell id="xst5zTmV_FD7mheuf8MC-74" value="" style="edgeStyle=elbowEdgeStyle;elbow=vertical;strokeWidth=4;endArrow=block;endFill=1;fontStyle=1;strokeColor=#23445D;exitX=0.31;exitY=1.058;exitDx=0;exitDy=0;exitPerimeter=0;" parent="1" source="8" edge="1">
          <mxGeometry x="290" y="-44.5" width="100" height="100" as="geometry">
            <mxPoint x="610" y="540" as="sourcePoint" />
            <mxPoint x="622" y="610" as="targetPoint" />
            <Array as="points">
              <mxPoint x="622" y="570" />
            </Array>
          </mxGeometry>
        </mxCell>
        <mxCell id="xst5zTmV_FD7mheuf8MC-76" value="3rd &#xa;Generation" style="rounded=1;fillColor=#dae8fc;strokeColor=#6c8ebf;shadow=1;fontStyle=1;fontSize=14;" parent="1" vertex="1">
          <mxGeometry x="660" y="610" width="80" height="40" as="geometry" />
        </mxCell>
        <mxCell id="xst5zTmV_FD7mheuf8MC-77" value="1st &#xa;Generation" style="rounded=1;fillColor=#dae8fc;strokeColor=#6c8ebf;shadow=1;fontStyle=1;fontSize=14;" parent="1" vertex="1">
          <mxGeometry x="480" y="610" width="80" height="30" as="geometry" />
        </mxCell>
        <mxCell id="xst5zTmV_FD7mheuf8MC-79" value="" style="edgeStyle=elbowEdgeStyle;elbow=vertical;strokeWidth=4;endArrow=block;endFill=1;fontStyle=1;strokeColor=#23445D;exitX=0.25;exitY=1;exitDx=0;exitDy=0;" parent="1" edge="1">
          <mxGeometry x="369.5" y="-45" width="100" height="100" as="geometry">
            <mxPoint x="689.5" y="515.5" as="sourcePoint" />
            <mxPoint x="689.5" y="609.5" as="targetPoint" />
            <Array as="points">
              <mxPoint x="700" y="563" />
            </Array>
          </mxGeometry>
        </mxCell>
        <mxCell id="xst5zTmV_FD7mheuf8MC-80" value="&#xa;2nd&#xa;Generation&#xa;" style="rounded=1;fillColor=#dae8fc;strokeColor=#6c8ebf;shadow=1;fontStyle=1;fontSize=14;" parent="1" vertex="1">
          <mxGeometry x="570" y="610" width="80" height="30" as="geometry" />
        </mxCell>
        <mxCell id="xst5zTmV_FD7mheuf8MC-81" value="Solana,&#xa;Aptos,&#xa;Cosmos,&#xa;Polkadot&#xa;" style="rounded=1;fillColor=#cce5ff;strokeColor=#36393d;shadow=1;fontStyle=1;fontSize=14;" parent="1" vertex="1">
          <mxGeometry x="768" y="690" width="82" height="90" as="geometry" />
        </mxCell>
        <mxCell id="xst5zTmV_FD7mheuf8MC-83" value="" style="edgeStyle=elbowEdgeStyle;elbow=vertical;strokeWidth=4;endArrow=block;endFill=1;fontStyle=1;strokeColor=#23445D;" parent="1" edge="1">
          <mxGeometry x="380" y="110" width="100" height="100" as="geometry">
            <mxPoint x="700" y="650" as="sourcePoint" />
            <mxPoint x="700" y="690" as="targetPoint" />
          </mxGeometry>
        </mxCell>
        <mxCell id="xst5zTmV_FD7mheuf8MC-84" value="Cardano,&#xa;EOS,&#xa;Hedera&#xa;" style="rounded=1;fillColor=#cce5ff;strokeColor=#36393d;shadow=1;fontStyle=1;fontSize=14;" parent="1" vertex="1">
          <mxGeometry x="659" y="690" width="82" height="90" as="geometry" />
        </mxCell>
        <mxCell id="xst5zTmV_FD7mheuf8MC-85" value="" style="edgeStyle=elbowEdgeStyle;elbow=vertical;strokeWidth=4;endArrow=block;endFill=1;fontStyle=1;strokeColor=#23445D;" parent="1" edge="1">
          <mxGeometry x="290" y="100" width="100" height="100" as="geometry">
            <mxPoint x="610" y="640" as="sourcePoint" />
            <mxPoint x="610" y="680" as="targetPoint" />
          </mxGeometry>
        </mxCell>
        <mxCell id="xst5zTmV_FD7mheuf8MC-86" value="&#xa;&#xa;&#xa;Monero,&#xa;Zcash,&#xa;Ethereum,&#xa;&#xa;&#xa;" style="rounded=1;fillColor=#cce5ff;strokeColor=#36393d;shadow=1;fontStyle=1;fontSize=14;" parent="1" vertex="1">
          <mxGeometry x="560" y="680" width="82" height="100" as="geometry" />
        </mxCell>
        <mxCell id="xst5zTmV_FD7mheuf8MC-88" value="Bitcoin,&#xa;Dogecoin,&#xa;Litecoin&#xa;" style="rounded=1;fillColor=#cce5ff;strokeColor=#36393d;shadow=1;fontStyle=1;fontSize=14;" parent="1" vertex="1">
          <mxGeometry x="470" y="680" width="82" height="100" as="geometry" />
        </mxCell>
        <mxCell id="xst5zTmV_FD7mheuf8MC-90" value="" style="edgeStyle=elbowEdgeStyle;elbow=vertical;strokeWidth=4;endArrow=block;endFill=1;fontStyle=1;strokeColor=#23445D;" parent="1" edge="1">
          <mxGeometry x="200" y="100" width="100" height="100" as="geometry">
            <mxPoint x="520" y="640" as="sourcePoint" />
            <mxPoint x="520" y="680" as="targetPoint" />
          </mxGeometry>
        </mxCell>
        <mxCell id="xst5zTmV_FD7mheuf8MC-91" value="" style="edgeStyle=elbowEdgeStyle;elbow=vertical;strokeWidth=4;endArrow=block;endFill=1;fontStyle=1;strokeColor=#23445D;" parent="1" edge="1">
          <mxGeometry x="32" y="175.5" width="100" height="100" as="geometry">
            <mxPoint x="680" y="410" as="sourcePoint" />
            <mxPoint x="1150" y="460" as="targetPoint" />
            <Array as="points">
              <mxPoint x="920" y="430" />
            </Array>
          </mxGeometry>
        </mxCell>
        <mxCell id="xst5zTmV_FD7mheuf8MC-92" value="Layer" style="rounded=1;fillColor=#e3c800;strokeColor=#B09500;shadow=1;fontStyle=1;fontColor=#000000;fontSize=14;" parent="1" vertex="1">
          <mxGeometry x="1070" y="455.5" width="200" height="54.5" as="geometry" />
        </mxCell>
        <mxCell id="xst5zTmV_FD7mheuf8MC-93" value="Layer3" style="rounded=1;fillColor=#fff2cc;strokeColor=#d6b656;shadow=1;fontStyle=1;fontSize=14;" parent="1" vertex="1">
          <mxGeometry x="1292" y="610" width="68" height="30" as="geometry" />
        </mxCell>
        <mxCell id="xst5zTmV_FD7mheuf8MC-94" value="" style="edgeStyle=elbowEdgeStyle;elbow=vertical;strokeWidth=4;endArrow=block;endFill=1;fontStyle=1;strokeColor=#23445D;entryX=0.5;entryY=0;entryDx=0;entryDy=0;" parent="1" edge="1" target="xst5zTmV_FD7mheuf8MC-101">
          <mxGeometry x="1010" y="100" width="100" height="100" as="geometry">
            <mxPoint x="1330" y="640" as="sourcePoint" />
            <mxPoint x="1330" y="680" as="targetPoint" />
          </mxGeometry>
        </mxCell>
        <mxCell id="xst5zTmV_FD7mheuf8MC-95" value="" style="edgeStyle=elbowEdgeStyle;elbow=vertical;strokeWidth=4;endArrow=block;endFill=1;fontStyle=1;strokeColor=#23445D;exitX=0.13;exitY=1.025;exitDx=0;exitDy=0;exitPerimeter=0;entryX=0.5;entryY=0;entryDx=0;entryDy=0;entryPerimeter=0;" parent="1" edge="1" target="xst5zTmV_FD7mheuf8MC-107">
          <mxGeometry x="488" y="276" width="100" height="100" as="geometry">
            <mxPoint x="1112" y="518" as="sourcePoint" />
            <mxPoint x="1040" y="610" as="targetPoint" />
            <Array as="points">
              <mxPoint x="1056" y="561" />
              <mxPoint x="1076" y="541" />
              <mxPoint x="1066" y="561" />
              <mxPoint x="1026" y="541" />
              <mxPoint x="1026" y="541" />
              <mxPoint x="1036" y="541" />
              <mxPoint x="1116" y="543" />
            </Array>
          </mxGeometry>
        </mxCell>
        <mxCell id="xst5zTmV_FD7mheuf8MC-96" value="" style="edgeStyle=elbowEdgeStyle;elbow=vertical;strokeWidth=4;endArrow=block;endFill=1;fontStyle=1;strokeColor=#23445D;exitX=0.75;exitY=1;exitDx=0;exitDy=0;" parent="1" edge="1">
          <mxGeometry x="562" y="273.5" width="100" height="100" as="geometry">
            <mxPoint x="1250" y="516" as="sourcePoint" />
            <mxPoint x="1330" y="610" as="targetPoint" />
            <Array as="points">
              <mxPoint x="1260" y="560" />
              <mxPoint x="1280" y="560" />
            </Array>
          </mxGeometry>
        </mxCell>
        <mxCell id="xst5zTmV_FD7mheuf8MC-97" value="" style="edgeStyle=elbowEdgeStyle;elbow=vertical;strokeWidth=4;endArrow=block;endFill=1;fontStyle=1;strokeColor=#23445D;exitX=0.31;exitY=1.058;exitDx=0;exitDy=0;exitPerimeter=0;" parent="1" edge="1">
          <mxGeometry x="812.5" y="-48" width="100" height="100" as="geometry">
            <mxPoint x="1144.5" y="515.5" as="sourcePoint" />
            <mxPoint x="1144.5" y="606.5" as="targetPoint" />
            <Array as="points">
              <mxPoint x="1144.5" y="566.5" />
            </Array>
          </mxGeometry>
        </mxCell>
        <mxCell id="xst5zTmV_FD7mheuf8MC-100" value="Layer1" style="rounded=1;fillColor=#fff2cc;strokeColor=#d6b656;shadow=1;fontStyle=1;fontSize=14;" parent="1" vertex="1">
          <mxGeometry x="1110" y="610" width="70" height="40" as="geometry" />
        </mxCell>
        <mxCell id="xst5zTmV_FD7mheuf8MC-101" value="&#xa;Dapp,&#xa;Games&#xa;" style="rounded=1;fillColor=#ffe6cc;strokeColor=#d79b00;shadow=1;fontStyle=1;fontSize=14;" parent="1" vertex="1">
          <mxGeometry x="1290" y="690" width="82" height="60" as="geometry" />
        </mxCell>
        <mxCell id="xst5zTmV_FD7mheuf8MC-104" value="" style="edgeStyle=elbowEdgeStyle;elbow=vertical;strokeWidth=4;endArrow=block;endFill=1;fontStyle=1;strokeColor=#23445D;entryX=0.5;entryY=0;entryDx=0;entryDy=0;" parent="1" edge="1">
          <mxGeometry x="829.5" y="110" width="100" height="100" as="geometry">
            <mxPoint x="1149.5" y="650" as="sourcePoint" />
            <mxPoint x="1149.5" y="700" as="targetPoint" />
          </mxGeometry>
        </mxCell>
        <mxCell id="xst5zTmV_FD7mheuf8MC-105" value="Moonbeam&#xa;Terra" style="rounded=1;fillColor=#ffe6cc;strokeColor=#d79b00;shadow=1;fontStyle=1;fontSize=14;" parent="1" vertex="1">
          <mxGeometry x="1110" y="700" width="80" height="50" as="geometry" />
        </mxCell>
        <mxCell id="xst5zTmV_FD7mheuf8MC-107" value="Layer0" style="rounded=1;fillColor=#fff2cc;strokeColor=#d6b656;shadow=1;fontStyle=1;fontSize=14;" parent="1" vertex="1">
          <mxGeometry x="1010" y="610" width="80" height="40" as="geometry" />
        </mxCell>
        <mxCell id="xst5zTmV_FD7mheuf8MC-108" value="Blockchain" style="rounded=1;fillColor=#ffe6cc;strokeColor=#d79b00;shadow=1;fontStyle=1;fontSize=14;" parent="1" vertex="1">
          <mxGeometry x="1005" y="700" width="90" height="50" as="geometry" />
        </mxCell>
        <mxCell id="xst5zTmV_FD7mheuf8MC-109" value="" style="edgeStyle=elbowEdgeStyle;elbow=vertical;strokeWidth=4;endArrow=block;endFill=1;fontStyle=1;strokeColor=#23445D;entryX=0.5;entryY=0;entryDx=0;entryDy=0;" parent="1" edge="1" target="xst5zTmV_FD7mheuf8MC-108">
          <mxGeometry x="730" y="110" width="100" height="100" as="geometry">
            <mxPoint x="1050" y="650" as="sourcePoint" />
            <mxPoint x="1050" y="690" as="targetPoint" />
          </mxGeometry>
        </mxCell>
        <mxCell id="xst5zTmV_FD7mheuf8MC-110" value="" style="edgeStyle=elbowEdgeStyle;elbow=vertical;strokeWidth=4;endArrow=block;endFill=1;fontStyle=1;strokeColor=#23445D;" parent="1" edge="1">
          <mxGeometry x="32" y="175.5" width="100" height="100" as="geometry">
            <mxPoint x="680" y="410" as="sourcePoint" />
            <mxPoint x="200" y="460" as="targetPoint" />
            <Array as="points">
              <mxPoint x="540" y="430" />
            </Array>
          </mxGeometry>
        </mxCell>
        <mxCell id="xst5zTmV_FD7mheuf8MC-113" value="Structure" style="rounded=1;fillColor=#e6d0de;strokeColor=#996185;shadow=1;gradientColor=#d5739d;fontStyle=1;fontSize=14;" parent="1" vertex="1">
          <mxGeometry x="70" y="460.5" width="210" height="44.5" as="geometry" />
        </mxCell>
        <mxCell id="xst5zTmV_FD7mheuf8MC-114" value="Blockchain" style="rounded=1;fillColor=#ffcccc;strokeColor=#36393d;shadow=1;fontStyle=1;fontSize=14;" parent="1" vertex="1">
          <mxGeometry x="20" y="620" width="70" height="60" as="geometry" />
        </mxCell>
        <mxCell id="xst5zTmV_FD7mheuf8MC-115" value="&#xa;Directed&#xa;Acyclic&#xa;Graph&#xa;" style="rounded=1;fillColor=#ffcccc;strokeColor=#36393d;shadow=1;fontStyle=1;fontSize=14;" parent="1" vertex="1">
          <mxGeometry x="180" y="625" width="70" height="60" as="geometry" />
        </mxCell>
        <mxCell id="xst5zTmV_FD7mheuf8MC-116" value="Holochain" style="rounded=1;fillColor=#ffcccc;strokeColor=#36393d;shadow=1;fontStyle=1;fontSize=14;" parent="1" vertex="1">
          <mxGeometry x="260" y="625" width="70" height="65" as="geometry" />
        </mxCell>
        <mxCell id="xst5zTmV_FD7mheuf8MC-117" value="" style="edgeStyle=elbowEdgeStyle;elbow=vertical;strokeWidth=4;endArrow=block;endFill=1;fontStyle=1;strokeColor=#23445D;" parent="1" edge="1">
          <mxGeometry x="-140" y="-54.5" width="100" height="100" as="geometry">
            <mxPoint x="200" y="510" as="sourcePoint" />
            <mxPoint x="200" y="620" as="targetPoint" />
            <Array as="points">
              <mxPoint x="200" y="570" />
              <mxPoint x="192" y="560" />
            </Array>
          </mxGeometry>
        </mxCell>
        <mxCell id="xst5zTmV_FD7mheuf8MC-118" value="" style="edgeStyle=elbowEdgeStyle;elbow=vertical;strokeWidth=4;endArrow=block;endFill=1;fontStyle=1;strokeColor=#23445D;exitX=0.81;exitY=1.112;exitDx=0;exitDy=0;entryX=0.25;entryY=0;entryDx=0;entryDy=0;exitPerimeter=0;" parent="1" source="xst5zTmV_FD7mheuf8MC-113" target="xst5zTmV_FD7mheuf8MC-116" edge="1">
          <mxGeometry x="-468" y="263.5" width="100" height="100" as="geometry">
            <mxPoint x="220" y="506" as="sourcePoint" />
            <mxPoint x="300" y="600" as="targetPoint" />
            <Array as="points">
              <mxPoint x="260" y="590" />
              <mxPoint x="240" y="590" />
              <mxPoint x="250" y="550" />
            </Array>
          </mxGeometry>
        </mxCell>
        <mxCell id="xst5zTmV_FD7mheuf8MC-120" value="" style="edgeStyle=elbowEdgeStyle;elbow=vertical;strokeWidth=4;endArrow=block;endFill=1;fontStyle=1;strokeColor=#23445D;entryX=0.5;entryY=0;entryDx=0;entryDy=0;" parent="1" target="xst5zTmV_FD7mheuf8MC-114" edge="1">
          <mxGeometry x="-538" y="263.5" width="100" height="100" as="geometry">
            <mxPoint x="100" y="510" as="sourcePoint" />
            <mxPoint x="55" y="610" as="targetPoint" />
            <Array as="points">
              <mxPoint x="80" y="590" />
              <mxPoint x="100" y="540" />
              <mxPoint x="170" y="590" />
              <mxPoint x="180" y="550" />
            </Array>
          </mxGeometry>
        </mxCell>
        <mxCell id="xst5zTmV_FD7mheuf8MC-121" value="Hash&#xa;Graph" style="rounded=1;fillColor=#ffcccc;strokeColor=#36393d;shadow=1;fontStyle=1;fontSize=14;" parent="1" vertex="1">
          <mxGeometry x="100" y="620" width="70" height="60" as="geometry" />
        </mxCell>
        <mxCell id="xst5zTmV_FD7mheuf8MC-122" value="" style="edgeStyle=elbowEdgeStyle;elbow=vertical;strokeWidth=4;endArrow=block;endFill=1;fontStyle=1;strokeColor=#23445D;" parent="1" edge="1">
          <mxGeometry x="-200" y="-54.5" width="100" height="100" as="geometry">
            <mxPoint x="140" y="510" as="sourcePoint" />
            <mxPoint x="140" y="620" as="targetPoint" />
            <Array as="points">
              <mxPoint x="140" y="570" />
              <mxPoint x="132" y="560" />
            </Array>
          </mxGeometry>
        </mxCell>
        <mxCell id="M0GaDfahyVNMfDLO6rhH-39" value="Layer2" style="rounded=1;fillColor=#fff2cc;strokeColor=#d6b656;shadow=1;fontStyle=1;fontSize=14;" vertex="1" parent="1">
          <mxGeometry x="1202" y="610" width="68" height="40" as="geometry" />
        </mxCell>
        <mxCell id="M0GaDfahyVNMfDLO6rhH-40" value="" style="edgeStyle=elbowEdgeStyle;elbow=vertical;strokeWidth=4;endArrow=block;endFill=1;fontStyle=1;strokeColor=#23445D;exitX=0.31;exitY=1.058;exitDx=0;exitDy=0;exitPerimeter=0;" edge="1" parent="1">
          <mxGeometry x="892.5" y="-48" width="100" height="100" as="geometry">
            <mxPoint x="1224.5" y="515.5" as="sourcePoint" />
            <mxPoint x="1224.5" y="606.5" as="targetPoint" />
            <Array as="points">
              <mxPoint x="1224.5" y="566.5" />
            </Array>
          </mxGeometry>
        </mxCell>
        <mxCell id="M0GaDfahyVNMfDLO6rhH-41" value="Arbitrum&#xa;Optimism" style="rounded=1;fillColor=#ffe6cc;strokeColor=#d79b00;shadow=1;fontStyle=1;fontSize=14;" vertex="1" parent="1">
          <mxGeometry x="1200" y="700" width="80" height="50" as="geometry" />
        </mxCell>
        <mxCell id="M0GaDfahyVNMfDLO6rhH-43" value="" style="edgeStyle=elbowEdgeStyle;elbow=vertical;strokeWidth=4;endArrow=block;endFill=1;fontStyle=1;strokeColor=#23445D;entryX=0.5;entryY=0;entryDx=0;entryDy=0;" edge="1" parent="1">
          <mxGeometry x="919.5" y="110" width="100" height="100" as="geometry">
            <mxPoint x="1239.5" y="650" as="sourcePoint" />
            <mxPoint x="1239.5" y="700" as="targetPoint" />
          </mxGeometry>
        </mxCell>
      </root>
    </mxGraphModel>
  </diagram>
</mxfile>
